# xmcd
#
# Track frame offsets:
#	150
#	12954
#	27033
#	44480
#	60272
#	83250
#	106265
#	117045
#	138845
#	152262
#
# Disc length: 2151 seconds
#
# Revision: 0
# Processed by: cddbd v1.5.2PL0 Copyright (c) Steve Scherf et al.
# Submitted via: dBpowerAMP V4.0
#
DISCID=6008650a
DTITLE=Fred McDowell and Johnny Woods - Eight Years Ramblin'
DYEAR=1971
DGENRE=Blues
TTITLE0=Shake Em On Down
TTITLE1=Smokestack Lightnin'
TTITLE2=John Henry
TTITLE3=My Babe
TTITLE4=Red Cross Store
TTITLE5=Going Down To The River
TTITLE6=Long Haired Doney
TTITLE7=I Left My Baby Sitting In The Back Door Crying
TTITLE8=Going Away
TTITLE9=Scratch My Back
EXTD=
EXTT0=
EXTT1=
EXTT2=
EXTT3=
EXTT4=
EXTT5=
EXTT6=
EXTT7=
EXTT8=
EXTT9=
PLAYORDER=
